HIERARCHY
ROOT hip
{
	OFFSET 0.000000 0.000000 0.000000 
	CHANNELS 6 Xposition Yposition Zposition Xrotation Zrotation Yrotation
	JOINT abdomen
	{
		OFFSET 0.000000 3.402643 0.000000 
		CHANNELS 3 Xrotation Zrotation Yrotation
		JOINT chest
		{
			OFFSET 0.000000 8.438565 -0.680529 
			CHANNELS 3 Xrotation Zrotation Yrotation
			JOINT neck
			{
				OFFSET 0.000000 10.207942 -0.272212 
				CHANNELS 3 Xrotation Zrotation Yrotation
				JOINT head
				{
					OFFSET 0.000000 3.130431 0.000000 
					CHANNELS 3 Xrotation Zrotation Yrotation
					End Site
					{
						OFFSET 0.000000 3.130435 0.000000 
					}
				}
			}
			JOINT lCollar
			{
				OFFSET 3.470700 6.669187 -0.816635 
				CHANNELS 3 Yrotation Zrotation Xrotation
				JOINT lShldr
				{
					OFFSET 3.198488 0.000000 0.000000 
					CHANNELS 3 Zrotation Yrotation Xrotation
					JOINT lForeArm
					{
						OFFSET 10.139888 0.000000 0.000000 
						CHANNELS 3 Yrotation Zrotation Xrotation
						JOINT lHand
						{
							OFFSET 8.370511 0.000000 0.000000 
							CHANNELS 3 Zrotation Yrotation Xrotation
							End Site
							{
								OFFSET 4.083176 0.000000 0.000000 
							}
						}
					}
				}
			}
			JOINT rCollar
			{
				OFFSET -3.470700 6.669187 -0.816635 
				CHANNELS 3 Yrotation Zrotation Xrotation
				JOINT rShldr
				{
					OFFSET -3.198488 0.000000 0.000000 
					CHANNELS 3 Zrotation Yrotation Xrotation
					JOINT rForeArm
					{
						OFFSET -10.139888 0.000000 0.000000 
						CHANNELS 3 Yrotation Zrotation Xrotation
						JOINT rHand
						{
							OFFSET -8.370511 0.000000 0.000000 
							CHANNELS 3 Zrotation Yrotation Xrotation
							End Site
							{
								OFFSET -4.083176 0.000000 0.000000 
							}
						}
					}
				}
			}
		}
	}
	JOINT lThigh
	{
		OFFSET 5.308129 -1.633274 1.361059 
		CHANNELS 3 Xrotation Zrotation Yrotation
		JOINT lShin
		{
			OFFSET -2.041588 -20.007561 0.000000 
			CHANNELS 3 Xrotation Zrotation Yrotation
			JOINT lFoot
			{
				OFFSET 0.000000 -19.190928 -1.224953 
				CHANNELS 3 Xrotation Yrotation Zrotation
				End Site
				{
					OFFSET 0.000000 -2.449906 4.627600 
				}
			}
		}
	}
	JOINT rThigh
	{
		OFFSET -5.308129 -1.633274 1.361059 
		CHANNELS 3 Xrotation Zrotation Yrotation
		JOINT rShin
		{
			OFFSET 2.041588 -20.007561 0.000000 
			CHANNELS 3 Xrotation Zrotation Yrotation
			JOINT rFoot
			{
				OFFSET 0.000000 -19.190928 -1.224953 
				CHANNELS 3 Xrotation Yrotation Zrotation
				End Site
				{
					OFFSET 0.000000 -2.449906 4.627600 
				}
			}
		}
	}
}
MOTION
Frames: 11
Frame Time: 0.016667
-0.320571 43.799046 0.264437 8.701820 -0.695032 -2.235390 -24.590200 0.427386 0.168663 19.101400 0.898148 0.162734 17.507055 -4.967832 -3.330851 12.410600 5.277330 -1.046570 2.000000 -2.000000 0.000000 88.825897 168.886993 -4.420890 36.435902 -0.324840 0.081257 0.044644 -0.001887 -137.595993 -2.000000 2.000000 0.000000 -91.167198 -165.177994 -0.887081 -39.043400 0.321032 0.086122 -0.056580 -0.016613 -127.459000 -18.230259 1.472749 -9.947929 31.521969 2.659610 2.354903 -26.519505 8.161976 5.149701 -13.258727 -1.100700 1.174525 20.877872 -2.752491 -1.672806 -21.505220 -1.788785 -1.682456 
-0.323470 43.799046 0.258976 8.692030 -0.685397 -2.233800 -24.590200 0.427386 0.168663 19.101400 0.917673 0.162238 17.473623 -4.996086 -3.328459 12.400700 5.267820 -1.048880 2.000000 -2.000000 0.000000 88.825897 168.839005 -4.372180 36.465199 -0.324799 0.081314 0.044646 -0.002079 -137.664001 -2.000000 2.000000 0.000000 -91.157402 -165.158005 -0.926192 -39.043400 0.321032 0.086122 -0.056607 -0.016774 -127.400002 -18.241308 1.462465 -9.955902 31.512154 2.659915 2.355011 -26.485394 8.201695 5.173786 -13.279922 -1.108597 1.202834 20.936333 -2.757348 -1.672759 -21.554708 -1.780346 -1.689677 
-0.327010 43.799812 0.250587 8.711550 -0.675708 -2.222780 -24.580500 0.420552 0.150428 19.130699 0.917684 0.152941 17.524811 -4.975513 -3.323126 12.420400 5.277170 -1.045670 2.000000 -2.000000 0.000000 88.835701 168.837997 -4.362410 36.484798 -0.324771 0.081351 0.044648 -0.002188 -137.703003 -2.000000 2.000000 0.000000 -91.167198 -165.188004 -0.896822 -39.023800 0.321062 0.086086 -0.056598 -0.016720 -127.419998 -18.256340 1.471552 -9.907132 31.481907 2.666051 2.347554 -26.426922 8.196314 5.152662 -13.308935 -1.112281 1.201202 20.927015 -2.756321 -1.682459 -21.565857 -1.771989 -1.673510 
-0.330553 43.800583 0.242200 8.731060 -0.666020 -2.202000 -24.560900 0.413743 0.132246 19.150200 0.927455 0.153014 17.571096 -4.942107 -3.327264 12.450100 5.296030 -1.040130 2.000000 -2.000000 0.000000 88.835701 168.837997 -4.352640 36.514000 -0.324729 0.081407 0.044649 -0.002298 -137.742004 -2.000000 2.000000 0.000000 -91.167198 -165.227005 -0.867429 -39.004299 0.321091 0.086050 -0.056585 -0.016640 -127.448997 -18.282791 1.478974 -9.876966 31.462587 2.662495 2.346924 -26.369627 8.148569 5.125812 -13.347384 -1.120280 1.199221 20.937233 -2.750144 -1.671509 -21.574747 -1.776377 -1.687693 
-0.331491 43.800846 0.240725 8.721280 -0.656385 -2.219930 -24.561001 0.422625 0.128187 19.169701 0.937225 0.153094 17.600672 -4.922829 -3.329780 12.450500 5.315350 -1.047040 2.000000 -2.000000 0.000000 88.806297 168.809006 -4.333180 36.523800 -0.324715 0.081426 0.044651 -0.002434 -137.791000 -2.000000 2.000000 0.000000 -91.206299 -165.197006 -0.808908 -39.033600 0.321047 0.086104 -0.056527 -0.016289 -127.575996 -18.284180 1.467007 -9.885388 31.482201 2.662204 2.346524 -26.406490 8.161265 5.138463 -13.384259 -1.128993 1.177921 20.966288 -2.753982 -1.671725 -21.545959 -1.774595 -1.674654 
-0.332431 43.801102 0.239252 8.711500 -0.646749 -2.237870 -24.551201 0.431532 0.124184 19.179501 0.956755 0.152785 17.617107 -4.908714 -3.320797 12.460600 5.334520 -1.043280 2.000000 -2.000000 0.000000 88.786797 168.779999 -4.323490 36.533600 -0.324702 0.081445 0.044653 -0.002544 -137.830002 -2.000000 2.000000 0.000000 -91.245300 -165.167999 -0.740621 -39.062901 0.321003 0.086158 -0.056470 -0.015938 -127.703003 -18.267778 1.453273 -9.914245 31.482897 2.658109 2.355149 -26.439112 8.160561 5.129388 -13.322038 -1.145872 1.153575 20.928839 -2.741706 -1.680384 -21.549261 -1.738284 -1.663597 
-0.335004 43.801102 0.237528 8.701780 -0.675726 -2.261730 -24.541500 0.449325 0.116128 19.208799 0.966529 0.153044 17.653162 -4.924036 -3.324900 12.480200 5.334210 -1.041470 2.000000 -2.000000 0.000000 88.747803 168.779999 -4.401610 36.474998 -0.324785 0.081332 0.044650 -0.002380 -137.770996 -2.000000 2.000000 0.000000 -91.255096 -165.147995 -0.789497 -39.072701 0.320988 0.086176 -0.056491 -0.016073 -127.653999 -18.264093 1.494895 -9.899353 31.502113 2.657939 2.344937 -26.425632 8.165533 5.141969 -13.306702 -1.111823 1.172111 20.907583 -2.754258 -1.682395 -21.549679 -1.734201 -1.661090 
-0.337578 43.801102 0.235801 8.692090 -0.714357 -2.296820 -24.531900 0.476004 0.104024 19.228300 0.986063 0.143156 17.680206 -4.935526 -3.327984 12.499900 5.343560 -1.047990 2.000000 -2.000000 0.000000 88.698898 168.789993 -4.469950 36.416401 -0.324868 0.081220 0.044647 -0.002161 -137.692993 -2.000000 2.000000 0.000000 -91.264801 -165.128998 -0.828608 -39.092201 0.320959 0.086213 -0.056518 -0.016235 -127.596001 -18.250370 1.540188 -9.885217 31.522316 2.654971 2.353648 -26.419367 8.179532 5.163139 -13.332275 -1.061968 1.197059 20.927835 -2.749752 -1.681788 -21.548773 -1.738577 -1.675040 
-0.339087 43.800846 0.235343 8.692110 -0.724011 -2.337360 -24.531900 0.488317 0.109113 19.257601 0.986075 0.153425 17.677952 -4.966284 -3.338299 12.489800 5.324390 -1.051760 2.000000 -2.000000 0.000000 88.689201 168.789993 -4.548070 36.377300 -0.324923 0.081145 0.044646 -0.002024 -137.643997 -2.000000 2.000000 0.000000 -91.254997 -165.119003 -0.877460 -39.092201 0.320959 0.086213 -0.056545 -0.016397 -127.537003 -18.267420 1.552814 -9.866237 31.543165 2.643379 2.360250 -26.437811 8.190224 5.160961 -13.345542 -1.044961 1.224476 20.918648 -2.744482 -1.681013 -21.521915 -1.722321 -1.641864 
-0.340597 43.800709 0.234882 8.692120 -0.733664 -2.377900 -24.531900 0.488317 0.109113 19.277201 0.986082 0.153761 17.666960 -4.993196 -3.357342 12.489700 5.314730 -1.062950 2.000000 -2.000000 0.000000 88.669701 168.800003 -4.626170 36.338299 -0.324978 0.081070 0.044644 -0.001887 -137.595993 -2.000000 2.000000 0.000000 -91.245300 -165.119003 -0.926288 -39.092201 0.320959 0.086213 -0.056571 -0.016559 -127.477997 -18.274652 1.569177 -9.848016 31.571268 2.655211 2.352886 -26.482763 8.209401 5.177710 -13.336919 -1.029052 1.224135 20.878115 -2.750555 -1.672469 -21.473011 -1.720898 -1.639878 
-0.341651 43.801102 0.234600 8.692160 -0.752971 -2.429680 -24.532000 0.506085 0.101004 19.286900 0.995849 0.153713 17.629850 -4.956065 -3.362568 12.470100 5.315040 -1.064760 2.000000 -2.000000 0.000000 88.640404 168.789993 -4.694560 36.318699 -0.325006 0.081032 0.044642 -0.001751 -137.546997 -2.000000 2.000000 0.000000 -91.254997 -165.119003 -0.945819 -39.072701 0.320988 0.086176 -0.056558 -0.016478 -127.508003 -18.259380 1.609874 -9.814002 31.579058 2.671605 2.337670 -26.492935 8.209777 5.178946 -13.330942 -0.996438 1.242307 20.909056 -2.742504 -1.680820 -21.483603 -1.713220 -1.635392 
